<?xml version="1.0" standalone="no"?>
<!DOCTYPE svg PUBLIC "-//W3C//DTD SVG 20010904//EN"
 "http://www.w3.org/TR/2001/REC-SVG-20010904/DTD/svg10.dtd">
<svg version="1.0" xmlns="http://www.w3.org/2000/svg"
 width="100.000000pt" height="100.000000pt" viewBox="0 0 100.000000 100.000000"
 preserveAspectRatio="xMidYMid meet">
<metadata>
Created by potrace 1.14, written by Peter Selinger 2001-2017
</metadata>
<g transform="translate(0.000000,100.000000) scale(0.100000,-0.100000)"
fill="#000000" stroke="none">
<path d="M388 984 c-189 -45 -331 -191 -375 -385 -20 -90 -12 -101 54 -71 63
28 90 35 96 24 14 -22 -24 -45 -125 -75 -21 -6 -38 -17 -38 -24 0 -15 51 -18
66 -3 6 6 25 14 42 19 25 8 32 7 32 -5 0 -14 -88 -64 -115 -64 -17 0 -19 -9
-5 -30 8 -12 15 -12 53 7 42 21 57 21 57 1 0 -4 -20 -18 -45 -30 -43 -21 -56
-40 -35 -53 5 -3 20 1 32 9 28 20 48 20 48 1 0 -8 -6 -15 -13 -15 -23 0 -52
-39 -40 -51 8 -8 18 -6 37 7 14 11 26 24 26 29 0 6 18 18 40 27 26 10 40 23
40 35 0 10 14 36 31 58 29 39 30 41 23 120 -6 82 6 131 37 151 6 3 4 -4 -4
-17 -25 -40 -28 -77 -12 -139 17 -65 18 -62 -37 -149 -19 -30 -20 -37 -8 -69
12 -33 11 -37 -10 -54 -34 -28 -69 -33 -83 -14 -12 16 -14 16 -31 -3 -11 -12
-16 -27 -12 -37 6 -15 8 -15 26 1 25 23 39 11 16 -14 -15 -16 -15 -19 -1 -31
12 -10 18 -10 30 0 19 16 32 5 16 -13 -9 -11 -8 -17 4 -27 9 -7 17 -11 18 -9
35 51 57 92 57 106 0 13 3 14 11 6 9 -9 5 -26 -16 -68 -20 -39 -25 -59 -18
-66 8 -8 18 6 37 46 32 71 32 90 1 140 -32 53 -31 82 6 138 33 50 33 55 11
154 -10 46 5 104 33 132 16 15 16 14 1 -16 -20 -40 -20 -88 -1 -143 21 -61 19
-81 -15 -126 -36 -48 -38 -86 -5 -139 32 -51 31 -79 -1 -150 -21 -46 -24 -59
-13 -65 16 -10 29 -4 29 14 0 8 12 40 27 72 l26 58 -32 61 c-39 74 -39 99 -1
149 36 47 36 54 9 132 -26 73 -21 120 17 161 l25 28 -15 -32 c-22 -44 -20
-102 4 -154 27 -61 25 -88 -11 -142 -35 -53 -34 -76 7 -136 29 -43 31 -89 5
-139 -28 -56 -31 -102 -6 -102 8 0 15 9 15 20 0 11 12 49 27 86 l27 66 -38 71
-39 71 33 60 32 61 51 -1 c35 0 52 -5 55 -15 2 -8 15 -31 29 -51 30 -44 27
-65 -17 -135 -17 -26 -30 -52 -30 -59 0 -6 11 -37 25 -68 14 -31 25 -68 25
-81 0 -16 6 -25 15 -25 27 0 28 28 1 86 -33 73 -33 103 4 162 37 61 37 76 0
131 -35 52 -37 73 -10 136 24 55 26 119 5 159 -14 26 -14 27 1 16 46 -39 55
-102 24 -180 -26 -65 -26 -69 10 -121 38 -56 38 -88 -1 -155 -33 -59 -33 -60
9 -154 21 -46 30 -57 42 -50 12 8 11 17 -13 65 -34 70 -34 92 3 161 31 59 30
71 -6 120 -33 45 -37 74 -20 125 20 57 20 112 0 152 l-17 32 22 -19 c35 -31
45 -88 27 -151 -22 -73 -20 -86 14 -131 36 -48 38 -86 5 -139 -13 -22 -25 -50
-25 -61 0 -27 48 -134 61 -134 15 0 10 33 -11 68 -11 18 -20 44 -20 59 0 24 2
22 25 -18 14 -24 28 -52 31 -61 7 -20 13 -22 33 -9 12 8 13 12 1 25 -16 21 -5
33 15 16 12 -10 18 -10 30 0 14 12 14 15 -1 31 -22 25 -10 37 15 15 17 -15 19
-15 32 0 11 14 10 18 -11 35 -23 17 -26 17 -37 2 -14 -19 -49 -12 -84 16 -21
17 -22 22 -11 45 18 40 15 58 -19 105 -35 46 -37 65 -20 138 10 40 9 57 -2 92
-13 35 -13 40 -1 30 23 -19 36 -85 24 -127 -16 -58 -12 -84 20 -126 17 -22 30
-48 30 -59 0 -12 13 -24 40 -35 22 -9 40 -21 40 -27 0 -5 12 -18 26 -28 20
-15 28 -16 39 -7 13 11 11 15 -9 31 -13 11 -29 19 -35 19 -6 0 -11 7 -11 15 0
8 8 15 19 15 10 0 24 -7 31 -15 17 -20 38 -19 42 2 2 13 -10 25 -44 41 -27 12
-48 27 -48 32 0 19 18 18 59 -3 36 -18 43 -19 51 -7 14 21 12 30 -5 30 -22 0
-104 42 -109 56 -9 23 10 24 50 4 21 -11 49 -20 61 -20 36 0 27 25 -14 37 -72
21 -115 40 -123 54 -21 33 17 33 95 -2 64 -29 69 -27 61 32 -39 291 -327 492
-608 423z m128 -48 c4 -18 15 -26 41 -31 35 -6 35 -7 14 -21 -22 -16 -27 -40
-12 -62 7 -11 16 -10 49 7 62 32 76 28 52 -11 -27 -44 -25 -50 8 -32 15 7 35
14 44 14 15 0 14 -5 -7 -35 -13 -20 -25 -40 -27 -46 -2 -6 -20 -4 -48 6 -91
33 -161 30 -285 -10 -20 -6 -27 3 -63 78 -6 12 21 8 51 -7 30 -17 33 -12 12
24 -27 47 -13 52 49 19 21 -11 39 -19 41 -17 21 27 22 45 3 65 l-21 23 31 6
c23 5 34 14 38 30 8 31 22 31 30 0z m-363 -229 c16 -31 22 -35 37 -27 19 10
90 14 90 5 0 -2 -21 -26 -47 -52 -30 -29 -55 -46 -66 -45 -11 2 -43 -6 -72
-18 -69 -28 -85 -23 -53 15 34 40 55 83 63 128 9 45 22 44 48 -6z m743 6 c7
-41 44 -112 68 -133 9 -7 16 -16 16 -21 0 -14 -24 -10 -74 12 -26 11 -57 19
-69 17 -16 -2 -36 11 -70 46 -26 27 -47 51 -47 53 0 8 73 2 90 -7 17 -9 22 -5
40 30 11 22 25 40 30 40 5 0 12 -17 16 -37z m-329 -8 c28 -19 30 -35 4 -35
-40 0 -51 -11 -50 -49 0 -20 3 -30 6 -23 2 6 20 12 39 12 41 0 45 -20 14 -80
-44 -86 -127 -78 -166 16 -23 55 -19 64 26 64 36 0 40 3 40 24 0 25 -16 36
-52 36 -29 0 -17 22 23 43 37 19 78 17 116 -8z m-113 -64 c3 -5 -6 -8 -19 -8
-14 0 -25 3 -25 8 0 5 9 9 19 9 11 0 22 -4 25 -9z m136 2 c0 -5 -11 -9 -25 -9
-14 -1 -22 2 -19 7 6 11 44 12 44 2z"/>
<path d="M471 803 c-22 -18 -21 -18 29 -18 50 0 51 0 29 18 -11 9 -25 17 -29
17 -4 0 -18 -8 -29 -17z"/>
<path d="M488 558 c9 -9 15 -9 24 0 9 9 7 12 -12 12 -19 0 -21 -3 -12 -12z"/>
<path d="M475 520 c3 -5 15 -10 25 -10 10 0 22 5 25 10 4 6 -7 10 -25 10 -18
0 -29 -4 -25 -10z"/>
</g>
</svg>
